# xmcd
#
# Track frame offsets:
#	150
#	17991
#	33147
#	49705
#	61696
#	81369
#	92530
#	104281
#	118450
#	133084
#	150003
#	166395
#	184892
#
# Disc length: 2539 seconds
#
# Revision: 2
# Processed by: cddbd v1.5.2PL0 Copyright (c) Steve Scherf et al.
# Submitted via: EasyCDDAExtractor 16.0.9.1
#
DISCID=9f09e90d
DTITLE=Елена Ваенга - Шопен
DYEAR=2006
DGENRE=Chanson
TTITLE0=название дорожки 1
TTITLE1=название дорожки 2
TTITLE2=название дорожки 3
TTITLE3=название дорожки 4
TTITLE4=название дорожки 5
TTITLE5=название дорожки 6
TTITLE6=название дорожки 7
TTITLE7=название дорожки 8
TTITLE8=любимого...
TTITLE9=Черемуха
TTITLE10=Письмо
TTITLE11=Какая есть
TTITLE12=Города
EXTD=
EXTT0=
EXTT1=
EXTT2=
EXTT3=
EXTT4=
EXTT5=
EXTT6=
EXTT7=
EXTT8=
EXTT9=
EXTT10=
EXTT11=
EXTT12=
PLAYORDER=
